<svg xmlns="http://www.w3.org/2000/svg" fill="none" viewBox="0 0 616 167">
  <path fill="#3A3A3A" d="M60.336 60.672c4.608 0 8.592.816 11.952 2.448 3.36 1.632 6.144 3.84 8.352 6.624s3.84 6.048 4.896 9.792c1.056 3.744 1.584 7.776 1.584 12.096 0 6.624-1.248 12.912-3.744 18.864-2.4 5.856-5.712 10.992-9.936 15.408-4.224 4.32-9.216 7.776-14.976 10.368-5.76 2.496-12 3.744-18.72 3.744-.864 0-2.4-.048-4.608-.144-2.112 0-4.56-.192-7.344-.576-2.784-.384-5.76-.96-8.928-1.728-3.072-.768-6-1.824-8.784-3.168L34.992 29.712l22.32-3.456-8.928 37.152a34.31 34.31 0 015.76-2.016c1.92-.48 3.984-.72 6.192-.72zm-18.72 61.632c3.36 0 6.528-.816 9.504-2.448a24.748 24.748 0 007.632-6.48c2.208-2.784 3.936-5.904 5.184-9.36a31.555 31.555 0 001.872-10.8c0-4.608-.768-8.208-2.304-10.8-1.536-2.592-4.368-3.888-8.496-3.888-1.344 0-3.12.24-5.328.72-2.112.48-4.032 1.488-5.76 3.024l-9.504 39.456c.576.096 1.056.192 1.44.288l1.44.288h4.32zm109.18-41.616c-1.92-.48-3.84-.912-5.76-1.296-1.824-.48-4.56-.72-8.208-.72-1.344 0-2.832.144-4.464.432-1.632.192-2.976.432-4.032.72L114.364 138H92.908l17.28-71.712c4.128-1.344 8.736-2.592 13.824-3.744 5.184-1.248 10.992-1.872 17.424-1.872 2.4 0 5.04.24 7.92.72 2.976.384 5.568 1.056 7.776 2.016l-6.336 17.28zm72.167 24.624a48.15 48.15 0 00-1.152 16.56c.576 5.472 1.68 10.368 3.312 14.688l-19.152 2.736a99.371 99.371 0 01-1.584-3.312 46.746 46.746 0 01-1.44-3.6 38.419 38.419 0 01-8.928 5.472c-3.264 1.44-6.912 2.16-10.944 2.16-4.8 0-8.928-.816-12.384-2.448-3.36-1.728-6.144-3.984-8.352-6.768-2.112-2.88-3.648-6.192-4.608-9.936-.96-3.84-1.44-7.92-1.44-12.24 0-6.624 1.152-12.864 3.456-18.72 2.4-5.856 5.664-10.944 9.792-15.264 4.224-4.416 9.168-7.872 14.832-10.368 5.664-2.496 11.808-3.744 18.432-3.744.864 0 2.352.048 4.464.144 2.208.096 4.704.336 7.488.72 2.784.288 5.712.816 8.784 1.584 3.072.768 6 1.824 8.784 3.168l-9.36 39.168zm-14.976-26.496a56.503 56.503 0 00-3.456-.432c-.96-.096-2.16-.144-3.6-.144-3.264 0-6.336.816-9.216 2.448-2.784 1.632-5.232 3.792-7.344 6.48-2.112 2.592-3.792 5.616-5.04 9.072-1.152 3.456-1.728 7.056-1.728 10.8 0 4.608.768 8.256 2.304 10.944 1.536 2.688 4.368 4.032 8.496 4.032 2.208 0 4.176-.432 5.904-1.296 1.824-.864 3.744-2.304 5.76-4.32.192-2.4.48-4.896.864-7.488.48-2.688.96-5.136 1.44-7.344l5.616-22.752zm46.064-13.104c1.632-.48 3.408-1.008 5.328-1.584 2.016-.672 4.224-1.248 6.624-1.728 2.496-.576 5.232-1.008 8.208-1.296 3.072-.384 6.528-.576 10.368-.576 11.328 0 19.104 3.264 23.328 9.792 4.224 6.528 4.944 15.456 2.16 26.784L300.275 138h-21.456l9.504-40.032a71.526 71.526 0 001.296-7.2c.384-2.4.384-4.464 0-6.192-.384-1.824-1.296-3.264-2.736-4.32-1.344-1.152-3.456-1.728-6.336-1.728a43.25 43.25 0 00-8.496.864L258.083 138h-21.456l17.424-72.288zm88.903 57.024c4.896 0 8.256-.672 10.08-2.016 1.824-1.44 2.736-2.976 2.736-4.608 0-1.056-.192-1.968-.576-2.736-.288-.768-.816-1.488-1.584-2.16-.768-.672-1.824-1.344-3.168-2.016-1.344-.768-3.072-1.632-5.184-2.592a88.924 88.924 0 01-6.768-3.312c-2.112-1.248-3.984-2.688-5.616-4.32a22.856 22.856 0 01-3.744-5.76c-.864-2.208-1.296-4.8-1.296-7.776 0-7.776 2.832-13.92 8.496-18.432 5.76-4.512 14.112-6.768 25.056-6.768 5.184 0 9.792.576 13.824 1.728 4.032 1.152 7.296 2.4 9.792 3.744l-7.344 15.984c-2.016-1.056-4.608-2.064-7.776-3.024s-6.288-1.44-9.36-1.44c-1.344 0-2.688.096-4.032.288a11.617 11.617 0 00-3.6.864c-1.056.48-1.92 1.152-2.592 2.016-.672.864-1.008 2.016-1.008 3.456 0 1.92.72 3.36 2.16 4.32 1.536.96 3.648 2.112 6.336 3.456 3.744 1.824 6.864 3.504 9.36 5.04 2.496 1.536 4.464 3.168 5.904 4.896a15.64 15.64 0 013.312 5.904c.672 2.208 1.008 4.8 1.008 7.776 0 3.072-.672 6.096-2.016 9.072-1.248 2.976-3.264 5.616-6.048 7.92-2.784 2.304-6.336 4.176-10.656 5.616-4.32 1.44-9.504 2.16-15.552 2.16-3.744 0-7.152-.24-10.224-.72-2.976-.48-5.616-1.056-7.92-1.728-2.304-.768-4.272-1.536-5.904-2.304a98.862 98.862 0 01-3.6-1.872l7.344-16.416c1.632.96 4.176 2.16 7.632 3.6 3.456 1.44 7.632 2.16 12.528 2.16zm118.493-14.4a51.471 51.471 0 013.168-17.856c2.208-5.76 5.28-10.848 9.216-15.264 3.936-4.512 8.688-8.112 14.256-10.8 5.664-2.784 11.904-4.176 18.72-4.176 3.36 0 6.48.48 9.36 1.44 2.88.96 5.376 2.352 7.488 4.176 2.208 1.824 3.888 4.08 5.04 6.768 1.248 2.592 1.872 5.568 1.872 8.928 0 5.376-1.2 9.936-3.6 13.68-2.4 3.744-5.76 6.816-10.08 9.216-4.224 2.304-9.264 3.984-15.12 5.04s-12.24 1.584-19.152 1.584c.672 4.032 2.112 6.912 4.32 8.64 2.304 1.632 5.904 2.448 10.8 2.448 3.072 0 6.192-.24 9.36-.72 3.168-.576 6.144-1.392 8.928-2.448l1.584 16.848c-2.688 1.056-6.144 2.016-10.368 2.88-4.128.864-8.64 1.296-13.536 1.296-5.952 0-10.992-.816-15.12-2.448-4.032-1.728-7.344-4.032-9.936-6.912-2.496-2.88-4.32-6.24-5.472-10.08-1.152-3.84-1.728-7.92-1.728-12.24zm41.904-31.104c-4.896 0-9.216 1.776-12.96 5.328-3.648 3.456-6.048 8.064-7.2 13.824 5.952-.192 10.752-.672 14.4-1.44 3.648-.864 6.48-1.872 8.496-3.024s3.36-2.4 4.032-3.744c.672-1.344 1.008-2.688 1.008-4.032 0-4.608-2.592-6.912-7.776-6.912zm88.023 3.456c-1.92-.48-3.84-.912-5.76-1.296-1.824-.48-4.56-.72-8.208-.72-1.344 0-2.832.144-4.464.432-1.632.192-2.976.432-4.032.72L554.942 138h-21.456l17.28-71.712c4.128-1.344 8.736-2.592 13.824-3.744 5.184-1.248 10.992-1.872 17.424-1.872 2.4 0 5.04.24 7.92.72 2.976.384 5.568 1.056 7.776 2.016l-6.336 17.28z"/>
  <path fill="#6FB327" d="M403.024 140.744c-4.32 0-8.064-.48-11.232-1.44-3.264-.864-5.712-1.68-7.344-2.448l7.2-16.848c1.728.864 3.744 1.488 6.048 1.872 2.208.48 4.272.72 6.192.72 5.28 0 9.216-1.344 11.808-4.032 2.496-2.688 4.224-6.048 5.184-10.08l.864-3.744H396.4l4.32-17.568h25.2l8.784-36.72c3.264-13.728 6.816-24.384 10.656-31.968 3.84-7.68 8.064-13.248 12.672-16.704l19.152 2.736c-2.496 2.304-4.8 5.136-6.912 8.496a80.224 80.224 0 00-5.616 10.656 86.31 86.31 0 00-4.32 11.376c-1.248 3.936-2.256 7.584-3.024 10.944l-14.976 62.784c-2.4 10.176-6.72 18.048-12.96 23.616-6.24 5.568-15.024 8.352-26.352 8.352z"/>
</svg>
