<svg xmlns="http://www.w3.org/2000/svg" fill="none" viewBox="0 0 138 35">
  <path fill="#fff" d="M12.393 14.758c1.07 0 1.994.204 2.774.613.78.41 1.426.962 1.938 1.66s.891 1.515 1.136 2.454c.245.938.368 1.948.368 3.03 0 1.66-.29 3.236-.87 4.727-.556 1.468-1.325 2.755-2.305 3.861a11.307 11.307 0 01-3.475 2.598c-1.337.626-2.785.938-4.345.938-.2 0-.557-.012-1.07-.036-.49 0-1.057-.048-1.704-.144a19.654 19.654 0 01-2.072-.433 10.086 10.086 0 01-2.038-.794L6.511 7l5.18-.866-2.072 9.31c.431-.212.878-.38 1.337-.506.446-.12.925-.18 1.437-.18zM8.049 30.2c.78 0 1.515-.204 2.205-.613a5.884 5.884 0 001.771-1.624 8.47 8.47 0 001.203-2.345c.29-.868.437-1.784.435-2.707 0-1.154-.178-2.056-.535-2.706-.356-.65-1.014-.974-1.972-.974-.311 0-.724.06-1.236.18a2.92 2.92 0 00-1.337.758l-2.205 9.887c.133.024.245.048.334.072l.334.072h1.003zm25.337-10.428c-.446-.12-.891-.228-1.337-.325-.423-.12-1.058-.18-1.904-.18a5.57 5.57 0 00-1.036.108c-.38.048-.691.108-.936.18L24.93 34.135h-4.979l4.01-17.969a34.21 34.21 0 013.208-.938c1.203-.313 2.551-.47 4.044-.47.557 0 1.17.06 1.838.181.69.096 1.292.265 1.804.505l-1.47 4.33zm16.748 6.17a13 13 0 00-.267 4.15c.133 1.37.39 2.598.768 3.68l-4.444.686c-.128-.274-.25-.551-.368-.83a12.277 12.277 0 01-.334-.902 8.828 8.828 0 01-2.072 1.37c-.758.362-1.604.542-2.54.542-1.114 0-2.072-.204-2.874-.613a5.963 5.963 0 01-1.938-1.696c-.49-.722-.847-1.552-1.07-2.49a13.565 13.565 0 01-.334-3.067c0-1.66.268-3.223.802-4.69.557-1.468 1.315-2.743 2.273-3.825a10.701 10.701 0 013.442-2.598c1.314-.626 2.74-.938 4.277-.938.201 0 .546.012 1.036.036a17.49 17.49 0 011.738.18c.646.072 1.326.205 2.039.397.713.192 1.392.457 2.038.794l-2.172 9.814zm-3.476-6.639a12.253 12.253 0 00-.802-.108 7.997 7.997 0 00-.835-.036 4.03 4.03 0 00-2.139.613 6.228 6.228 0 00-1.704 1.624 7.9 7.9 0 00-1.17 2.273 9.12 9.12 0 00-.4 2.706c0 1.155.178 2.069.534 2.743.356.673 1.014 1.01 1.972 1.01.512 0 .969-.108 1.37-.325.423-.216.869-.577 1.337-1.082a30.32 30.32 0 01.2-1.877 54.08 54.08 0 01.334-1.84l1.303-5.7zm10.69-3.283c.38-.12.791-.253 1.237-.397.468-.169.98-.313 1.537-.433.58-.145 1.215-.253 1.905-.325a18.12 18.12 0 012.406-.144c2.63 0 4.434.818 5.414 2.453.98 1.636 1.147 3.873.501 6.712l-2.272 10.247h-4.98l2.206-10.03c.129-.596.23-1.198.301-1.805.09-.601.09-1.119 0-1.552-.09-.457-.3-.817-.635-1.082-.312-.289-.802-.433-1.47-.433a9.315 9.315 0 00-1.972.216l-3.242 14.686h-4.979l4.044-18.113zm20.633 14.288c1.136 0 1.916-.168 2.339-.505.423-.36.635-.746.635-1.154a1.62 1.62 0 00-.134-.686 1.366 1.366 0 00-.368-.541 3.487 3.487 0 00-.735-.505 14.585 14.585 0 00-1.203-.65 20.085 20.085 0 01-1.57-.83 6.62 6.62 0 01-1.304-1.082 5.794 5.794 0 01-.869-1.444c-.2-.553-.3-1.202-.3-1.948 0-1.948.657-3.488 1.971-4.619 1.337-1.13 3.275-1.695 5.815-1.695 1.203 0 2.273.144 3.208.432.936.29 1.693.602 2.273.939l-1.705 4.005c-.468-.265-1.07-.517-1.804-.758a6.957 6.957 0 00-2.172-.36 6.13 6.13 0 00-.936.071c-.288.024-.57.097-.836.217-.245.12-.445.288-.601.505-.156.216-.234.505-.234.866 0 .481.167.842.501 1.082.357.241.847.53 1.47.866.87.457 1.594.878 2.173 1.263.579.385 1.036.794 1.37 1.227.353.427.615.932.769 1.48.156.553.233 1.202.233 1.948 0 .77-.156 1.527-.467 2.273-.29.746-.758 1.407-1.404 1.985-.646.577-1.47 1.046-2.473 1.407-1.002.36-2.206.541-3.61.541-.868 0-1.659-.06-2.372-.18-.69-.12-1.303-.265-1.838-.433a12.14 12.14 0 01-1.37-.578c-.281-.15-.56-.306-.835-.469l1.704-4.113c.379.24.969.541 1.771.902.802.36 1.771.541 2.908.541zm27.498-3.608a13.834 13.834 0 01.735-4.474c.513-1.444 1.226-2.718 2.139-3.825a10.38 10.38 0 013.309-2.706c1.314-.698 2.762-1.046 4.344-1.046.78 0 1.504.12 2.172.36a4.99 4.99 0 011.738 1.047 4.43 4.43 0 011.17 1.696c.289.65.434 1.395.434 2.237 0 1.347-.278 2.49-.835 3.428-.557.938-1.337 1.707-2.34 2.309-.98.577-2.15.998-3.509 1.263-1.359.264-2.84.397-4.444.397.156 1.01.49 1.732 1.002 2.165.535.409 1.37.613 2.507.613.713 0 1.437-.06 2.172-.18a11.092 11.092 0 002.072-.614l.367 4.222c-.623.264-1.425.505-2.406.721a14.25 14.25 0 01-3.141.325c-1.381 0-2.551-.204-3.509-.613-.936-.433-1.704-1.01-2.306-1.732a6.973 6.973 0 01-1.27-2.526 11.423 11.423 0 01-.401-3.067zm9.725-7.794c-1.136 0-2.139.445-3.008 1.335-.846.866-1.403 2.02-1.671 3.464 1.382-.048 2.496-.168 3.342-.36.847-.217 1.504-.47 1.972-.758.468-.289.78-.602.936-.939.156-.336.234-.673.234-1.01 0-1.154-.602-1.732-1.805-1.732zm20.428.866c-.446-.12-.892-.228-1.337-.325-.423-.12-1.058-.18-1.905-.18-.312 0-.657.036-1.036.108a6.126 6.126 0 00-.936.18l-3.241 14.578h-4.98l4.011-17.969a34.19 34.19 0 013.208-.938c1.203-.313 2.551-.47 4.043-.47.557 0 1.17.06 1.838.181.691.096 1.293.265 1.805.505l-1.47 4.33z"/>
  <path fill="#00DF9A" d="M92.029 35c-.994 0-1.856-.12-2.585-.363-.75-.217-1.314-.423-1.69-.616l1.657-4.244c.398.218.862.375 1.392.472.508.12.983.181 1.425.181 1.215 0 2.12-.338 2.717-1.015.574-.677.972-1.524 1.193-2.54l.198-.942h-5.831l.994-4.425h5.799l2.02-9.249c.752-3.458 1.569-6.142 2.453-8.052.883-1.934 1.855-3.337 2.916-4.207l4.407.69c-.575.58-1.105 1.293-1.591 2.139a21.05 21.05 0 00-1.292 2.684 22.917 22.917 0 00-.994 2.865 37.81 37.81 0 00-.696 2.757l-3.446 15.813c-.552 2.563-1.546 4.546-2.982 5.948C96.657 34.3 94.636 35 92.029 35z"/>
</svg>
